<?xml version="1.0" encoding="UTF-8"?>
<!DOCTYPE svg PUBLIC "-//W3C//DTD SVG 1.1//EN" "http://www.w3.org/Graphics/SVG/1.1/DTD/svg11.dtd">
<svg xmlns="http://www.w3.org/2000/svg" width="555" height="840" style="shape-rendering:geometricPrecision; text-rendering:geometricPrecision; image-rendering:optimizeQuality; fill-rule:evenodd; clip-rule:evenodd"
viewBox="2000 550 18500 28000"
 xmlns:dc="http://purl.org/dc/elements/1.1/"
 xmlns:cc="http://web.resource.org/cc/"
 xmlns:rdf="http://www.w3.org/1999/02/22-rdf-syntax-ns#"
 xmlns:svg="http://www.w3.org/2000/svg"
 xmlns:xlink="http://www.w3.org/1999/xlink"
 xmlns:sodipodi="http://inkscape.sourceforge.net/DTD/sodipodi-0.dtd"
 xmlns:inkscape="http://www.inkscape.org/namespaces/inkscape"
 version="1.0">
 <defs>
  <style type="text/css">
   <![CDATA[
    .fil0 {fill:black;fill-rule:nonzero;fill-opacity:0.200000}
    .fil1 {fill:black;fill-rule:nonzero;fill-opacity:0.396078}
    .fil6 {fill:black;fill-rule:nonzero;fill-opacity:0.400000}
    .fil5 {fill:url(#id0);fill-rule:nonzero}
    .fil4 {fill:url(#id1);fill-rule:nonzero}
    .fil3 {fill:url(#id2);fill-rule:nonzero}
    .fil8 {fill:url(#id3);fill-rule:nonzero}
    .fil7 {fill:url(#id4);fill-rule:nonzero}
    .fil2 {fill:url(#id5);fill-rule:nonzero}
   ]]>
  </style>
  <linearGradient id="id0" gradientUnits="userSpaceOnUse" x1="7664.33" y1="1942.72" x2="8166.88" y2="25882.6">
   <stop offset="0" style="stop-color:black"/>
   <stop offset="0.129412" style="stop-color:#4D4D4D"/>
   <stop offset="1" style="stop-color:black"/>
  </linearGradient>
  <linearGradient id="id1" gradientUnits="userSpaceOnUse" x1="7691.94" y1="1941.36" x2="8199.69" y2="26128.8">
   <stop offset="0" style="stop-color:#CC8F00"/>
   <stop offset="0.129412" style="stop-color:#FAC13D"/>
   <stop offset="1" style="stop-color:#CC8F00"/>
  </linearGradient>
  <linearGradient id="id2" gradientUnits="userSpaceOnUse" x1="3375.52" y1="5022.98" x2="7636.73" y2="2232.44">
   <stop offset="0" style="stop-color:black"/>
   <stop offset="0.490196" style="stop-color:#4D4D4D"/>
   <stop offset="1" style="stop-color:black"/>
  </linearGradient>
  <linearGradient id="id3" gradientUnits="userSpaceOnUse" x1="3119.99" y1="5609.3" x2="18747.4" y2="19082.8">
   <stop offset="0" style="stop-color:black"/>
   <stop offset="0.109804" style="stop-color:#4D4D4D"/>
   <stop offset="0.890196" style="stop-color:#292929"/>
   <stop offset="1" style="stop-color:black"/>
  </linearGradient>
  <linearGradient id="id4" gradientUnits="userSpaceOnUse" x1="2981.37" y1="5596.39" x2="18787.5" y2="19224">
   <stop offset="0" style="stop-color:#CC8F00"/>
   <stop offset="0.109804" style="stop-color:#FAC13D"/>
   <stop offset="0.890196" style="stop-color:#D29508"/>
   <stop offset="1" style="stop-color:#B37D00"/>
  </linearGradient>
  <linearGradient id="id5" gradientUnits="userSpaceOnUse" x1="3651.6" y1="5086.46" x2="7405.73" y2="2228.38">
   <stop offset="0" style="stop-color:#996B00"/>
   <stop offset="0.380392" style="stop-color:#FAC13D"/>
   <stop offset="1" style="stop-color:#CC8F00"/>
  </linearGradient>
  <filter
    id="filter3411">
    <feGaussianBlur
      inkscape:collect="always"
      stdDeviation="300"
      id="feGaussianBlur3413" />
  </filter>
 </defs>
 <g id="Layer_x0020_1">
  <path id="path6129" class="fil0" style="filter:url(#filter3411)" d="M7764.39 3472.8c0,0 -707.18,-1102.94 -1646.37,-1797.5 -661.23,-147.6 -864.65,-55.45 -1600.97,473.68 -1019.44,732.55 -1032.59,1016.01 -1032.59,1220.83 390.78,1513.63 841.08,1840.23 1165.43,2069.68 0,0 -22.26,-10.11 -22.26,-10.11 0,0 269.56,-1820.05 3136.76,-1956.58z"/>
  <path id="path2187" class="fil1" style="filter:url(#filter3411)" d="M5852.78 1447.54c311.12,302.44 1316.66,837.13 1221.33,1617.65 2492.07,4254.12 611.02,11998.7 -971.25,17422.7 0,0 -613.12,2165.01 -454.9,2590.43 158.23,425.42 82.52,383.73 1308.77,1376.37 1086.55,879.52 2401.9,2564.51 2599.67,3379.88l1553.78 -14514c0,0 54.32,-6062.13 14.77,-7267.48 -39.55,-1205.34 -435.13,-2728.5 -2452.52,-3543.87 -945.58,-382.17 -2143.6,-926.42 -2819.65,-1061.66z"/>
  <g id="_149282840">
   <path id="path2397" class="fil2" d="M7591.98 3439.2c0,0 -132.31,-758.02 -1071.5,-1452.58 -661.23,-147.59 -1260.67,-55.45 -1996.99,473.67 -1019.44,732.58 -1058.14,1297.07 -1058.14,1501.88 390.78,1513.63 687.77,1214.27 1012.13,1443.72 0,0 -22.27,-10.12 -22.27,-10.12 0,0 269.57,-1820.04 3136.77,-1956.57z"/>
   <path id="path2397_0" class="fil3" d="M3476.96 4006.98c0,-204.81 65.47,-760.38 1084.91,-1492.95 736.32,-529.13 1380.37,-630.19 2041.6,-482.6l194.18 239.89c-650.34,-82.49 -1286.73,5.99 -2032.68,491.52 -991.6,741.86 -1082.16,1369.93 -1115.76,1563.53l-172.25 -319.39zm359.73 585.77c47.37,-204.78 127.65,-828.68 1112.51,-1561.25 742.01,-468.53 1353.44,-538.25 1996.99,-473.68l166.93 264.35c-892.1,-7.96 -1491.27,227.98 -1950.7,505.6 -1020.66,616.76 -1158.31,1499.67 -1147.62,1527.48l-178.11 -262.5zm359.06 537.24c0,0 134.57,-939.18 1164.08,-1530.19 451.13,-258.99 1079.26,-459.7 1952.86,-501.3l222.6 284.01c-2867.2,136.54 -3132.7,1989.08 -3132.7,1989.08l-206.84 -241.6z"/>
  </g>
  <g id="_149137736">
   <path id="path2399" class="fil4" d="M6517.82 1994.62c339.85,237.67 611.69,809.19 902.19,1490.07 1777.66,4166.62 -370.66,10990.5 -1735.99,16212.9 0,0 -529.07,1877.33 -392.54,2286.93 373.95,896.52 1764.79,1937.28 2794.83,2816.33 602.79,514.43 909.22,894.18 1016.16,1274.6 479.79,-4213.12 771.51,-5713.85 1428.48,-12760.8 56.45,-605.58 154.03,-2105.15 180.28,-3584.57 25.44,-1433.91 -19.13,-2848.95 -43.74,-3412.78 -50.64,-1159.93 -375.47,-2730.67 -2116.27,-3515.73 -796.15,-378.98 -1539.96,-720.61 -2033.4,-807.01z"/>
   <path id="path2399_1" class="fil5" d="M7058.28 2142.72c328.18,234.39 742.54,865.97 1005.8,1483.02 432.78,1150.18 636.15,2506.52 631.45,3978.42 -12.22,3828.87 -1231.64,8439.99 -2115.2,12239.9 0,0 -644.68,2674.47 -583.83,3084.07 -282.36,-268.67 -522.79,-551.78 -646.04,-820.43 -136.53,-409.6 459.92,-2346.85 459.92,-2346.85 1342.87,-5222.41 3418.97,-12019.5 1709.22,-16186.2 -290.5,-680.89 -641.22,-1360.65 -989.99,-1580.48 189.07,36.68 362.44,89.04 528.67,148.56zm910.34 395.16c1225.29,872.75 1439.18,2365.77 1632.12,3617.49 223.52,1450.02 -196.18,5800.86 -348.43,7017.09 -403.95,3226.84 -755.54,5294.26 -1034.13,7046.02 -230.83,1451.45 -449.96,2750.88 -625.37,4122.93 -290.34,-219.76 -622.72,-466.74 -873.25,-716.31 -30.58,-394.46 376.86,-2307.81 650.66,-3693.99 1051.11,-5321.3 2483.49,-11744.1 1380.95,-15780.5 -222.28,-813.77 -915.65,-1442.36 -1220.76,-1807.61 146.07,64.96 292.13,129.92 438.21,194.91zm472 217.01c1740.79,785.06 2092.14,2402.55 2142.77,3562.47 25.01,572.79 33.9,2024.01 -10.89,3481.06 -44.8,1457.07 -126.53,2920.04 -182.12,3516.29 -649.45,6966.68 -909.17,8413.58 -1378.21,12516.4 -187.26,-340.71 -445.09,-633.86 -692.01,-835.28 399.33,-3524.75 647.46,-5315.84 1467.91,-11721.2 152.53,-1190.76 399.54,-5851.78 311.42,-6997.34 -82.77,-1076.17 -424.15,-2660.31 -1684.62,-3537.48l25.75 15.05z"/>
  </g>
  <path id="path3168" class="fil6" style="filter:url(#filter3411)" d="M4414.62 4715.32c0,0 -559.7,-780.36 -1022.44,-1579.54 0,225.65 -141.02,2670.17 -141.02,2670.17 0,0 -141.02,1729.97 916.66,3083.87 1057.67,1353.88 4759.56,6430.96 11846,11508 0,0 1727.53,1316.28 2221.12,1353.89 0,0 881.4,-3948.84 705.12,-5377.95 0,0 -2044.85,-789.78 -8144.14,-5866.86 -6099.29,-5077.07 -6381.33,-5791.63 -6381.33,-5791.63z"/>
  <g id="_150169368">
   <path id="path2258" class="fil7" d="M3333.24 6370.43l132.11 -2408.26c397.44,737.97 945.25,1444.76 989.86,1433.6 0,0 273.07,648.53 6178.14,5256.53 5905.07,4608 7884.81,5324.8 7884.81,5324.8 58.41,684.07 -40.37,1364.52 -136.54,2052.2 -131.72,941.85 -327.57,1894.34 -546.13,2828.87 -477.87,-34.13 -2150.4,-1228.79 -2150.4,-1228.79 -6860.8,-4608.01 -10444.8,-9216.01 -11468.8,-10444.8 -1024,-1228.79 -887.46,-2798.93 -887.46,-2798.93l4.42 -15.2z"/>
   <path id="path2258_2" class="fil8" d="M3438.12 4505.35l31.78 -503.21c216.39,488.8 833.66,1328.82 1002.04,1602.62 23.69,38.51 264.51,551.08 6129.12,5219.77 5905.07,4608 7937.81,5351.31 7937.81,5351.31 7.38,312.39 -4.43,624.79 -44.23,937.16 0,0 -2081.12,-809.35 -7986.19,-5417.36 -5757.47,-4900.55 -5932.68,-5401.76 -6128.58,-5663.81 -246.11,-329.2 -656.23,-912.72 -941.75,-1526.48zm-28.88 457.31l-26.42 423.78c56.61,566.17 229.93,1255.05 879.92,2035.03 1024,1228.81 4840,5618.57 11700.8,10226.6 0,0 1783.35,1139.25 2275.07,1242.64 52.89,-286.33 99.71,-572.67 143.17,-858.99 0,0 -2082.59,-871.26 -7987.67,-5479.26 -5651.03,-4961.2 -5494.47,-5243.93 -5955.73,-5745.51 -228.62,-248.62 -857.71,-1092.21 -1029.14,-1844.27zm-56.48 883.61l-19.52 524.16c-12.1,514.5 7.94,1598.94 877.73,2672.91 1024,1228.81 4661.38,5809.82 11522.2,10417.8 0,0 1672.53,1194.67 2150.4,1228.8l180.47 -867.91c-477.87,-34.13 -2233.52,-1256.5 -2233.52,-1256.5 -6860.8,-4608 -10562.4,-9123.62 -11586.4,-10352.4 -650,-779.99 -834.75,-1800.68 -891.36,-2366.85z"/>
  </g>
 </g>
</svg>
